<svg xmlns="http://www.w3.org/2000/svg" width="34.107" height="34.109" viewBox="0 0 34.107 34.109">
  <path id="Exclusion_1" data-name="Exclusion 1" d="M34.108,34.109H0V0H34.108V34.107h0ZM7.275,9.854a1.226,1.226,0,0,0-1.211,1.21V22.678a1.229,1.229,0,0,0,1.211,1.214H26.151a1.227,1.227,0,0,0,1.21-1.214V11.063a1.225,1.225,0,0,0-1.21-1.21ZM24.668,22.44H8.758l5.292-4.379,1.44,1.285a1.818,1.818,0,0,0,2.447,0l1.438-1.285,5.293,4.378Zm1.241-.856h0l-5.433-4.5,5.435-4.865v9.364Zm-18.392,0V12.22l5.435,4.865-5.433,4.5Zm9.2-3.247a.4.4,0,0,1-.256-.073L8.666,11.306H24.761L16.97,18.264A.407.407,0,0,1,16.713,18.337Z" fill="#fff"/>
</svg>
